<svg width="14" height="16" viewBox="0 0 14 16" fill="none" xmlns="http://www.w3.org/2000/svg">
<path d="M0.90625 15.2881V2.45684C0.90625 1.56934 1.625 0.850586 2.5125 0.850586H7.375C8.2625 0.850586 8.98125 1.56934 8.98125 2.45684V7.26933" stroke="#383832" stroke-linecap="round" stroke-linejoin="round"/>
<path d="M5.11914 7.33789H12.8504" stroke="#383832" stroke-linecap="round" stroke-linejoin="round"/>
<path d="M6.28711 10.5693C6.44244 10.5693 6.56836 10.4434 6.56836 10.2881C6.56836 10.1328 6.44244 10.0068 6.28711 10.0068C6.13178 10.0068 6.00586 10.1328 6.00586 10.2881C6.00586 10.4434 6.13178 10.5693 6.28711 10.5693Z" fill="#383832" stroke="#383832" stroke-linecap="round" stroke-linejoin="round"/>
<path d="M11.6816 10.5693C11.837 10.5693 11.9629 10.4434 11.9629 10.2881C11.9629 10.1328 11.837 10.0068 11.6816 10.0068C11.5263 10.0068 11.4004 10.1328 11.4004 10.2881C11.4004 10.4434 11.5263 10.5693 11.6816 10.5693Z" fill="#383832" stroke="#383832" stroke-linecap="round" stroke-linejoin="round"/>
<path d="M8.98145 10.5693C9.13678 10.5693 9.2627 10.4434 9.2627 10.2881C9.2627 10.1328 9.13678 10.0068 8.98145 10.0068C8.82612 10.0068 8.7002 10.1328 8.7002 10.2881C8.7002 10.4434 8.82612 10.5693 8.98145 10.5693Z" fill="#383832" stroke="#383832" stroke-linecap="round" stroke-linejoin="round"/>
<path d="M4.9375 12.8633C5.09283 12.8633 5.21875 12.7374 5.21875 12.582C5.21875 12.4267 5.09283 12.3008 4.9375 12.3008C4.78217 12.3008 4.65625 12.4267 4.65625 12.582C4.65625 12.7374 4.78217 12.8633 4.9375 12.8633Z" fill="#383832" stroke="#383832" stroke-linecap="round" stroke-linejoin="round"/>
<path d="M10.3311 12.8633C10.4864 12.8633 10.6123 12.7374 10.6123 12.582C10.6123 12.4267 10.4864 12.3008 10.3311 12.3008C10.1757 12.3008 10.0498 12.4267 10.0498 12.582C10.0498 12.7374 10.1757 12.8633 10.3311 12.8633Z" fill="#383832" stroke="#383832" stroke-linecap="round" stroke-linejoin="round"/>
<path d="M13.0312 12.8633C13.1866 12.8633 13.3125 12.7374 13.3125 12.582C13.3125 12.4267 13.1866 12.3008 13.0312 12.3008C12.8759 12.3008 12.75 12.4267 12.75 12.582C12.75 12.7374 12.8759 12.8633 13.0312 12.8633Z" fill="#383832" stroke="#383832" stroke-linecap="round" stroke-linejoin="round"/>
<path d="M7.6377 12.8633C7.79303 12.8633 7.91895 12.7374 7.91895 12.582C7.91895 12.4267 7.79303 12.3008 7.6377 12.3008C7.48237 12.3008 7.35645 12.4267 7.35645 12.582C7.35645 12.7374 7.48237 12.8633 7.6377 12.8633Z" fill="#383832" stroke="#383832" stroke-linecap="round" stroke-linejoin="round"/>
</svg>
