<svg width="24" height="24" viewBox="0 0 24 24" fill="none" xmlns="http://www.w3.org/2000/svg">
<circle cx="12" cy="12" r="10" fill="black" fill-opacity="0.06"/>
<path d="M11.4128 10.0554C11.5639 9.89978 11.7704 9.81061 11.9871 9.80718C12.2082 9.80376 12.4213 9.89004 12.5778 10.0462C12.7344 10.2025 12.821 10.4155 12.818 10.6365V16.0361C12.8211 16.2551 12.7363 16.4662 12.5825 16.6222C12.4287 16.7781 12.2189 16.8659 11.9998 16.8659C11.7808 16.8659 11.571 16.7781 11.4172 16.6222C11.2634 16.4662 11.1786 16.2551 11.1817 16.0361V10.6365C11.1787 10.4199 11.2619 10.2108 11.4128 10.0554Z" fill="#353935"/>
<path d="M11.4213 7.2397C11.5747 7.08629 11.7829 7 11.9999 7C12.2168 7 12.425 7.08629 12.5784 7.2397C12.7318 7.3931 12.818 7.60116 12.818 7.81826C12.818 8.03521 12.7318 8.24328 12.5784 8.39668C12.425 8.55023 12.2168 8.63638 11.9999 8.63638C11.7829 8.63638 11.5747 8.55023 11.4213 8.39668C11.2679 8.24328 11.1817 8.03522 11.1817 7.81826C11.1817 7.60118 11.2679 7.3931 11.4213 7.2397Z" fill="#353935"/>
</svg>
