<svg width="28" height="29" viewBox="0 0 28 29" fill="none" xmlns="http://www.w3.org/2000/svg">
<path fill-rule="evenodd" clip-rule="evenodd" d="M13.9992 18.8008C17.37 18.8008 20.1637 16.33 20.668 13.1008H21.7544C21.2414 16.9259 17.9648 19.8758 13.9992 19.8758C10.0336 19.8758 6.75705 16.9259 6.24406 13.1008H7.3304C7.83476 16.33 10.6285 18.8008 13.9992 18.8008ZM22.9742 10.8258V11.7008H23.7992V13.1008H22.9135C22.4201 17.3344 18.9805 20.6686 14.6992 20.9989V24.3008H18.1992V25.7008H9.79922V24.3008H13.2992V20.9989C9.01792 20.6686 5.57831 17.3344 5.08499 13.1008H4.19922V11.7008H5.02422V10.8258H6.17422V11.7008H7.25814C7.44025 8.13553 10.3887 5.30078 13.9992 5.30078C17.6098 5.30078 20.5582 8.13553 20.7403 11.7008H21.8242V10.8258H22.9742ZM13.9992 17.6508C17.092 17.6508 19.5992 15.1436 19.5992 12.0508C19.5992 8.95799 17.092 6.45078 13.9992 6.45078C10.9064 6.45078 8.39922 8.95799 8.39922 12.0508C8.39922 15.1436 10.9064 17.6508 13.9992 17.6508ZM15.7141 9.39576L15.2191 8.90078L12.2492 11.8706L12.7442 12.3656L15.7141 9.39576ZM15.2191 11.0008L15.7141 11.4958L12.7442 14.4656L12.2492 13.9706L15.2191 11.0008ZM17.8141 11.4958L17.3191 11.0008L14.3492 13.9706L14.8442 14.4656L17.8141 11.4958Z" fill="#353935"/>
</svg>
