<svg width="28" height="29" viewBox="0 0 28 29" fill="none" xmlns="http://www.w3.org/2000/svg">
<path d="M13.4691 10.3012L13.964 10.7961L10.9942 13.766L10.4992 13.271L13.4691 10.3012Z" fill="#1C211F"/>
<path d="M13.4691 12.4012L13.964 12.8961L10.9942 15.866L10.4992 15.371L13.4691 12.4012Z" fill="#1C211F"/>
<path d="M15.5691 12.4012L16.064 12.8961L13.0942 15.866L12.5992 15.371L15.5691 12.4012Z" fill="#1C211F"/>
<path fill-rule="evenodd" clip-rule="evenodd" d="M5.94922 6.10117C5.94922 5.32797 6.57602 4.70117 7.34922 4.70117H19.5992C20.3724 4.70117 20.9992 5.32797 20.9992 6.10117V21.5012C20.9992 22.2744 20.3724 22.9012 19.5992 22.9012H18.1992V24.5666C18.1992 25.4902 17.3206 26.1607 16.4297 25.917L6.97971 23.3311C6.37119 23.1646 5.94922 22.6117 5.94922 21.9808V6.10117ZM11.0655 6.10117H19.5992V10.3012H18.1992V9.12158C18.1992 8.49069 17.7772 7.93774 17.1687 7.77122L11.0655 6.10117ZM18.1992 21.5012H19.5992V17.3012H18.1992V21.5012ZM18.1992 15.9012H19.5992V11.7012H18.1992V15.9012ZM7.34922 6.53573L16.7992 9.12158L16.7992 24.5666L7.34922 21.9808L7.34922 6.53573Z" fill="#1C211F"/>
</svg>
