<svg width="28" height="29" viewBox="0 0 28 29" fill="none" xmlns="http://www.w3.org/2000/svg">
<path fill-rule="evenodd" clip-rule="evenodd" d="M13.3 6.10059H14.7V10.3006H16.8V8.20059C16.8 7.81399 17.1134 7.50059 17.5 7.50059H19.6V8.90059H18.2V10.3006H20.65C20.8433 10.3006 21 10.4573 21 10.6506V14.1506C21 14.3439 20.8433 14.5006 20.65 14.5006H19.5676L16.8 17.6636V25.7006H11.2V17.5514L8.27629 14.5006H7.35C7.1567 14.5006 7 14.3439 7 14.1506V10.6506C7 10.4573 7.1567 10.3006 7.35 10.3006H9.8V8.90059H8.4V7.50059H10.5C10.8866 7.50059 11.2 7.81399 11.2 8.20059V10.3006H13.3V6.10059ZM8.4 11.7006V13.1006H19.6V11.7006H8.4ZM15.8699 16.6006L17.7074 14.5006H10.2154L12.2279 16.6006H15.8699ZM12.6 18.0006V24.3006H15.4V18.0006H12.6Z" fill="#353935"/>
</svg>
