<svg width="16" height="24" viewBox="0 0 16 24" fill="none" xmlns="http://www.w3.org/2000/svg">
<path fill-rule="evenodd" clip-rule="evenodd" d="M10.75 0.300781C11.3299 0.300781 11.8 0.770883 11.8 1.35078V3.10078H13.55C14.1299 3.10078 14.6 3.57088 14.6 4.15078V4.50078H7.6V4.15078C7.6 3.57088 8.0701 3.10078 8.65 3.10078H10.4V1.70078H2V23.0508H0.599998V1.35078C0.599998 0.770883 1.0701 0.300781 1.65 0.300781H10.75ZM8.3 5.90078C7.9134 5.90078 7.6 6.21418 7.6 6.60078C7.6 6.98738 7.9134 7.30078 8.3 7.30078C8.6866 7.30078 9 6.98738 9 6.60078C9 6.21418 8.6866 5.90078 8.3 5.90078ZM11.1 5.90078C10.7134 5.90078 10.4 6.21418 10.4 6.60078C10.4 6.98738 10.7134 7.30078 11.1 7.30078C11.4866 7.30078 11.8 6.98738 11.8 6.60078C11.8 6.21418 11.4866 5.90078 11.1 5.90078ZM13.2 6.60078C13.2 6.21418 13.5134 5.90078 13.9 5.90078C14.2866 5.90078 14.6 6.21418 14.6 6.60078C14.6 6.98738 14.2866 7.30078 13.9 7.30078C13.5134 7.30078 13.2 6.98738 13.2 6.60078ZM9.7 8.00078C9.3134 8.00078 9 8.31418 9 8.70078C9 9.08738 9.3134 9.40078 9.7 9.40078C10.0866 9.40078 10.4 9.08738 10.4 8.70078C10.4 8.31418 10.0866 8.00078 9.7 8.00078ZM6.2 8.70078C6.2 8.31418 6.5134 8.00078 6.9 8.00078C7.2866 8.00078 7.6 8.31418 7.6 8.70078C7.6 9.08738 7.2866 9.40078 6.9 9.40078C6.5134 9.40078 6.2 9.08738 6.2 8.70078ZM15.3 8.00078C14.9134 8.00078 14.6 8.31418 14.6 8.70078C14.6 9.08738 14.9134 9.40078 15.3 9.40078C15.6866 9.40078 16 9.08738 16 8.70078C16 8.31418 15.6866 8.00078 15.3 8.00078ZM11.8 8.70078C11.8 8.31418 12.1134 8.00078 12.5 8.00078C12.8866 8.00078 13.2 8.31418 13.2 8.70078C13.2 9.08738 12.8866 9.40078 12.5 9.40078C12.1134 9.40078 11.8 9.08738 11.8 8.70078Z" fill="#1C211F"/>
</svg>
