<svg width="18" height="17" viewBox="0 0 18 17" fill="none" xmlns="http://www.w3.org/2000/svg">
<path d="M4.29375 0.782227L5.725 3.25098H8.58125L10.0062 0.782227" stroke="#383832" stroke-linecap="round" stroke-linejoin="round"/>
<path d="M1.44375 5.72598H4.3L5.725 3.25098L4.3 0.782227H1.44375" stroke="#383832" stroke-linecap="round" stroke-linejoin="round"/>
<path d="M8.58125 3.25098H5.725L4.29375 5.72598L5.725 8.20098H8.58125L10.0062 5.72598L8.58125 3.25098Z" stroke="#383832" stroke-linecap="round" stroke-linejoin="round"/>
<path d="M12.8625 0.782227H10.0063L8.58125 3.25098L10.0063 5.72598H12.8625L14.2938 3.25098L12.8625 0.782227Z" stroke="#383832" stroke-linecap="round" stroke-linejoin="round"/>
<path d="M1.44375 10.6756H4.3L5.725 8.20059L4.3 5.72559H1.44375" stroke="#383832" stroke-linecap="round" stroke-linejoin="round"/>
<path d="M8.58125 8.20117H5.725L4.29375 10.6762L5.725 13.1449H8.58125L10.0062 10.6762L8.58125 8.20117Z" stroke="#383832" stroke-linecap="round" stroke-linejoin="round"/>
<path d="M12.8625 5.72559H10.0063L8.58125 8.20059L10.0063 10.6756H12.8625L14.2938 8.20059L12.8625 5.72559Z" stroke="#383832" stroke-linecap="round" stroke-linejoin="round"/>
<path d="M1.44375 15.6195H4.3L5.725 13.1445L4.3 10.6758H1.44375" stroke="#383832" stroke-linecap="round" stroke-linejoin="round"/>
<path d="M10.0062 15.6195L8.58125 13.1445H5.725L4.29375 15.6195" stroke="#383832" stroke-linecap="round" stroke-linejoin="round"/>
<path d="M12.8625 10.6758H10.0063L8.58125 13.1445L10.0063 15.6195H12.8625L14.2938 13.1445L12.8625 10.6758Z" stroke="#383832" stroke-linecap="round" stroke-linejoin="round"/>
<path d="M1.29375 15.6197L1.43125 0.782227H16.5937" stroke="#383832" stroke-linecap="round" stroke-linejoin="round"/>
<path d="M1.43124 15.6201H16.4562" stroke="#383832" stroke-linecap="round" stroke-linejoin="round"/>
<path d="M16.4563 15.6197L16.5938 0.782227" stroke="#383832" stroke-linecap="round" stroke-linejoin="round"/>
<path d="M16.0687 8.20117H14.2937" stroke="#383832" stroke-linecap="round" stroke-linejoin="round"/>
<path d="M16.0687 3.25098H14.2937" stroke="#383832" stroke-linecap="round" stroke-linejoin="round"/>
<path d="M16.0687 13.1445H14.2937" stroke="#383832" stroke-linecap="round" stroke-linejoin="round"/>
</svg>
