<svg width="16" height="24" viewBox="0 0 16 24" fill="none" xmlns="http://www.w3.org/2000/svg">
<path d="M14.7249 18.251H1.2749" stroke="#383832" stroke-miterlimit="10"/>
<path d="M10.3188 14.801V13.3385C10.3188 12.876 10.6751 12.501 11.1188 12.501H11.4876" stroke="#383832" stroke-miterlimit="10" stroke-linecap="round"/>
<path d="M5.68145 14.801V13.3385C5.68145 12.876 5.3252 12.501 4.88145 12.501H4.5127" stroke="#383832" stroke-miterlimit="10" stroke-linecap="round"/>
<path d="M14.7562 21.7012H1.30615" stroke="#383832" stroke-miterlimit="10"/>
<path d="M1.0376 23.9955V14.8018H14.9626V23.9955" stroke="#383832" stroke-miterlimit="10"/>
<path d="M8.0001 11.3514C10.8789 11.3514 13.2126 9.04004 13.2126 6.18887C13.2126 3.3377 10.8789 1.02637 8.0001 1.02637C5.12131 1.02637 2.7876 3.3377 2.7876 6.18887C2.7876 9.04004 5.12131 11.3514 8.0001 11.3514Z" stroke="#383832" stroke-miterlimit="10"/>
<path d="M8 8.15137V14.8014" stroke="#383832" stroke-miterlimit="10" stroke-linecap="round"/>
</svg>
