<svg width="28" height="29" viewBox="0 0 28 29" fill="none" xmlns="http://www.w3.org/2000/svg">
<rect x="13.3008" y="13.1006" width="1.4" height="1.4" rx="0.699999" fill="#353935"/>
<rect x="13.3008" y="18.7012" width="1.4" height="1.4" rx="0.699999" fill="#353935"/>
<path fill-rule="evenodd" clip-rule="evenodd" d="M14.6996 6.10059H13.2996V10.3006H11.1996V8.20059C11.1996 7.81399 10.8862 7.50059 10.4996 7.50059H8.39961V8.90059H9.79961V10.3006H5.94961C5.75631 10.3006 5.59961 10.4573 5.59961 10.6506V22.5506C5.59961 22.7439 5.75631 22.9006 5.94961 22.9006H22.0496C22.2429 22.9006 22.3996 22.7439 22.3996 22.5506V10.6506C22.3996 10.4573 22.2429 10.3006 22.0496 10.3006H18.1996V8.90059H19.5996V7.50059H17.4996C17.113 7.50059 16.7996 7.81399 16.7996 8.20059V10.3006H14.6996V6.10059ZM6.99961 11.7006V15.9006H20.9996V11.7006H6.99961ZM6.99961 21.5006V17.3006H20.9996V21.5006H6.99961Z" fill="#353935"/>
</svg>
